<svg width="24" height="24" viewBox="0 0 24 24" fill="none" xmlns="http://www.w3.org/2000/svg">
<path d="M21.8997 1.15698H2.09936C1.57863 1.15698 1.15649 1.57912 1.15649 2.09985V21.9001C1.15649 22.4209 1.57863 22.843 2.09936 22.843H21.8997C22.4204 22.843 22.8425 22.4209 22.8425 21.9001V2.09985C22.8425 1.57912 22.4204 1.15698 21.8997 1.15698Z" stroke="#6E6E6E" stroke-width="2.3" stroke-linecap="round" stroke-linejoin="round"/>
<path d="M11.0566 10.1143V17.6572" stroke="#6E6E6E" stroke-width="2.3" stroke-linecap="round" stroke-linejoin="round"/>
<path d="M7.28515 10.1143V17.6572" stroke="#6E6E6E" stroke-width="2.3" stroke-linecap="round" stroke-linejoin="round"/>
<path d="M11.0566 13.4143C11.0566 12.5391 11.4043 11.6997 12.0232 11.0808C12.6421 10.4619 13.4815 10.1143 14.3567 10.1143C15.2319 10.1143 16.0713 10.4619 16.6902 11.0808C17.3091 11.6997 17.6567 12.5391 17.6567 13.4143V17.6572" stroke="#6E6E6E" stroke-width="2.3" stroke-linecap="round" stroke-linejoin="round"/>
<path d="M7.28515 7.75708C8.06625 7.75708 8.69946 7.12387 8.69946 6.34277C8.69946 5.56167 8.06625 4.92847 7.28515 4.92847C6.50405 4.92847 5.87085 5.56167 5.87085 6.34277C5.87085 7.12387 6.50405 7.75708 7.28515 7.75708Z" fill="#6E6E6E"/>
</svg>
