<svg width="27" height="23" viewBox="0 0 27 23" fill="none" xmlns="http://www.w3.org/2000/svg">
<path d="M11.8014 5.85722C11.8014 3.27075 13.9764 1.11927 16.5629 1.15454C17.4687 1.165 18.3522 1.43684 19.1072 1.93739C19.8621 2.43794 20.4565 3.14589 20.8188 3.97615H24.9689L21.1715 7.77356C20.9264 11.5881 19.2378 15.1661 16.4491 17.7802C13.6603 20.3943 9.98061 21.8482 6.1582 21.8463C2.39606 21.8463 1.45553 20.4355 1.45553 20.4355C1.45553 20.4355 5.21767 19.0247 7.09874 16.2031C7.09874 16.2031 -0.425545 12.441 1.45553 2.09508C1.45553 2.09508 6.1582 6.79775 11.8014 7.73829V5.85722Z" stroke="#6E6E6E" stroke-width="2.3" stroke-linecap="round" stroke-linejoin="round"/>
</svg>
