<svg width="41" height="41" viewBox="0 0 41 41" fill="none" xmlns="http://www.w3.org/2000/svg">
<path d="M36.4825 25.4338L20.4982 15.5985L4.51544 25.4364C3.91206 25.8067 3.12286 25.6197 2.75384 25.0163C2.38226 24.4142 2.57053 23.625 3.17391 23.2547L19.8279 13.0043C20.2391 12.7506 20.7593 12.7505 21.1705 13.0042L37.8262 23.2519C38.4296 23.6234 38.6168 24.4113 38.2466 25.0135C37.8725 25.6195 37.0808 25.8027 36.4825 25.4338Z" fill="#FD650B"/>
<path d="M23.7032 28.1869L17.2975 28.1874C16.9439 28.1874 16.6569 28.4744 16.6569 28.828L16.6577 38.4366L7.68974 38.4373L7.68871 25.7399L20.4995 17.856L33.3115 25.7391L33.3125 38.4352L24.3446 38.436L24.3438 28.8274C24.3438 28.4738 24.0568 28.1869 23.7032 28.1869ZM35.8719 2.5631L35.8726 10.5446C35.8726 10.9084 35.4332 11.0904 35.1757 10.8329L32.5209 8.17861L28.0373 12.663C27.5172 13.1844 26.7114 13.2806 26.081 12.904L20.5091 9.56193L2.56374 20.6081L2.56343 16.8479L19.6594 6.32583C20.168 6.01191 20.8086 6.00802 21.3236 6.31673L26.6573 9.51659L30.257 5.9163L27.6022 3.26199C27.3434 3.00322 27.5266 2.56377 27.8904 2.56374L35.8719 2.5631Z" fill="#FD650B"/>
</svg>
