<svg width="27" height="21" viewBox="0 0 27 21" fill="none" xmlns="http://www.w3.org/2000/svg">
<path d="M17.221 10.5L11.5018 6.68723V14.3128L17.221 10.5Z" stroke="#FD650B" stroke-width="2" stroke-linecap="round" stroke-linejoin="round"/>
<path d="M1.01674 10.5002C1.01674 14.0455 1.38302 16.1257 1.66146 17.1948C1.73589 17.4868 1.87883 17.7568 2.07842 17.9826C2.27802 18.2083 2.52853 18.3832 2.8092 18.4929C6.79794 20.0257 13.4082 19.9836 13.4082 19.9836C13.4082 19.9836 20.0184 20.0257 24.0072 18.4929C24.2879 18.3832 24.5384 18.2083 24.738 17.9826C24.9376 17.7568 25.0805 17.4868 25.155 17.1948C25.4334 16.1257 25.7997 14.0456 25.7997 10.5002C25.7997 6.95487 25.4334 4.87474 25.155 3.80564C25.0806 3.51365 24.9376 3.2436 24.738 3.01787C24.5384 2.79213 24.2879 2.61721 24.0073 2.50758C20.0185 0.974762 13.4082 1.01685 13.4082 1.01685C13.4082 1.01685 6.79801 0.974763 2.80924 2.50757C2.52856 2.61719 2.27805 2.79212 2.07845 3.01785C1.87886 3.24359 1.73592 3.51363 1.66149 3.80561C1.38303 4.87472 1.01674 6.95487 1.01674 10.5002Z" stroke="#FD650B" stroke-width="2" stroke-linecap="round" stroke-linejoin="round"/>
</svg>
