<svg width="15" height="16" viewBox="0 0 15 16" fill="none" xmlns="http://www.w3.org/2000/svg">
<path d="M12.3306 5.19876C13.7662 5.19876 14.93 4.03498 14.93 2.59938C14.93 1.16378 13.7662 0 12.3306 0C10.895 0 9.73121 1.16378 9.73121 2.59938C9.73121 4.03498 10.895 5.19876 12.3306 5.19876Z" fill="#636363"/>
<path d="M2.59938 5.19876C4.03498 5.19876 5.19876 4.03498 5.19876 2.59938C5.19876 1.16378 4.03498 0 2.59938 0C1.16378 0 0 1.16378 0 2.59938C0 4.03498 1.16378 5.19876 2.59938 5.19876Z" fill="#636363"/>
<path d="M12.3306 16.0002C13.7662 16.0002 14.93 14.8365 14.93 13.4009C14.93 11.9653 13.7662 10.8015 12.3306 10.8015C10.895 10.8015 9.73121 11.9653 9.73121 13.4009C9.73121 14.8365 10.895 16.0002 12.3306 16.0002Z" fill="#636363"/>
<path d="M2.59938 16.0002C4.03498 16.0002 5.19876 14.8365 5.19876 13.4009C5.19876 11.9653 4.03498 10.8015 2.59938 10.8015C1.16378 10.8015 0 11.9653 0 13.4009C0 14.8365 1.16378 16.0002 2.59938 16.0002Z" fill="#636363"/>
</svg>
