<svg width="22" height="22" viewBox="0 0 22 22" fill="none" xmlns="http://www.w3.org/2000/svg">
<path d="M1.20175 12.9596C2.23199 12.9564 3.25269 13.1569 4.20512 13.5496C5.15756 13.9424 6.02292 14.5196 6.7514 15.2481C7.47989 15.9766 8.05712 16.842 8.44988 17.7944C8.84264 18.7468 9.04318 19.7675 9.03994 20.7978" stroke="#6E6E6E" stroke-width="2.3" stroke-linecap="round" stroke-linejoin="round"/>
<path d="M1.20175 7.08091C4.83968 7.08091 8.32861 8.52607 10.901 11.0985C13.4734 13.6709 14.9186 17.1598 14.9186 20.7977" stroke="#6E6E6E" stroke-width="2.3" stroke-linecap="round" stroke-linejoin="round"/>
<path d="M1.20175 1.2023C3.77551 1.19746 6.32474 1.70256 8.7022 2.68844C11.0797 3.67432 13.2382 5.12144 15.0533 6.94622C16.8781 8.76128 18.3252 10.9199 19.3111 13.2973C20.297 15.6748 20.8021 18.224 20.7972 20.7978" stroke="#6E6E6E" stroke-width="2.3" stroke-linecap="round" stroke-linejoin="round"/>
<path d="M1.69164 21.7775C2.50331 21.7775 3.1613 21.1195 3.1613 20.3078C3.1613 19.4962 2.50331 18.8382 1.69164 18.8382C0.879969 18.8382 0.22198 19.4962 0.22198 20.3078C0.22198 21.1195 0.879969 21.7775 1.69164 21.7775Z" fill="#6E6E6E"/>
</svg>
