<svg width="27" height="21" viewBox="0 0 27 21" fill="none" xmlns="http://www.w3.org/2000/svg">
<path d="M17.1224 10.5L11.4859 6.74231V14.2577L17.1224 10.5Z" stroke="#6E6E6E" stroke-width="2.3" stroke-linecap="round" stroke-linejoin="round"/>
<path d="M1.15226 10.5001C1.15226 13.9994 1.51629 16.0427 1.78637 17.0995C1.86084 17.3863 2.00167 17.6515 2.19748 17.8738C2.3933 18.0962 2.63862 18.2694 2.91368 18.3795C6.84751 19.8826 13.3647 19.8473 13.3647 19.8473C13.3647 19.8473 19.882 19.8826 23.8158 18.3795C24.0909 18.2694 24.3362 18.0962 24.532 17.8738C24.7278 17.6515 24.8687 17.3863 24.9431 17.0995C25.2132 16.0427 25.5772 13.9994 25.5772 10.5001C25.5772 7.00072 25.2132 4.95748 24.9431 3.90063C24.8687 3.61387 24.7278 3.34863 24.532 3.1263C24.3362 2.90397 24.0909 2.73077 23.8158 2.62067C19.882 1.11759 13.3647 1.15282 13.3647 1.15282C13.3647 1.15282 6.84751 1.11759 2.91368 2.62067C2.63862 2.73077 2.3933 2.90397 2.19748 3.1263C2.00167 3.34863 1.86084 3.61387 1.78637 3.90063C1.51629 4.95748 1.15226 7.00072 1.15226 10.5001Z" stroke="#6E6E6E" stroke-width="2.3" stroke-linecap="round" stroke-linejoin="round"/>
</svg>
